<svg
  version="1.0"
  xmlns="http://www.w3.org/2000/svg"
  viewBox="0 0 643.000000 676.000000"
  preserveAspectRatio="xMidYMid meet"
  width="100%">
    <g transform="translate(0.000000,676.000000) scale(0.100000,-0.100000)"
    fill="#000000" stroke="none">
    <path d="M0 3382 l0 -3382 3215 0 3215 0 0 220 0 220 -318 0 c-482 0 -717 16
    -1080 75 -311 51 -614 126 -813 201 -76 28 -300 140 -374 187 -141 88 -336
    267 -451 413 -90 115 -223 343 -284 486 -180 428 -330 1041 -434 1781 -14 95
    -28 197 -31 227 -82 716 -231 1242 -463 1630 -114 191 -217 325 -367 476 -375
    379 -792 614 -1395 790 -137 40 -170 46 -287 51 l-133 6 0 -3381z"/>
    </g>
</svg>
